<?xml version="1.0" encoding="utf-8"?>
<!-- Generator: Adobe Illustrator 18.1.0, SVG Export Plug-In . SVG Version: 6.00 Build 0)  -->
<svg version="1.1" id="Layer_1" xmlns="http://www.w3.org/2000/svg" xmlns:xlink="http://www.w3.org/1999/xlink" x="0px" y="0px"
	 viewBox="0 0 580.9 141.1" enable-background="new 0 0 580.9 141.1" xml:space="preserve">
<g>
	<g>
		<defs>
			<polygon id="SVGID_1_" points="60.9,12.2 36.5,36.5 109.6,36.5 97.4,12.2 			"/>
		</defs>
		<clipPath id="SVGID_2_">
			<use xlink:href="#SVGID_1_"  overflow="visible"/>
		</clipPath>
		<radialGradient id="SVGID_3_" cx="73.0798" cy="24.3643" r="36.5627" gradientUnits="userSpaceOnUse">
			<stop  offset="0.2889" style="stop-color:#14B1E7"/>
			<stop  offset="0.4495" style="stop-color:#1DA8E0"/>
			<stop  offset="0.7257" style="stop-color:#2B93D1"/>
		</radialGradient>
		<rect x="36.5" y="12.2" clip-path="url(#SVGID_2_)" fill="url(#SVGID_3_)" width="73.1" height="24.4"/>
	</g>
	<path d="M162.2,69.7c0-6.4-4.4-12.5-13.2-12.5h-20.2v25H149C157.3,82.2,162.2,77.3,162.2,69.7 M161,40.7c0-6.4-4.3-11.7-12.4-11.7
		h-19.8v23.3h19.8C156.8,52.3,161,47.2,161,40.7 M123.4,87.1V24h25.9c10.6,0,17.4,6.1,17.4,16.1c0,7.9-5.4,13.3-11.1,14.5
		c6.7,1,12.3,8,12.3,15.5c0,10.5-6.8,17-18,17H123.4z"/>
	<path d="M175,41.4h4.9v45.6H175V41.4z M173.7,30.5c0-2.1,1.8-3.7,3.8-3.7c2.1,0,3.8,1.6,3.8,3.7c0,2.1-1.7,3.8-3.8,3.8
		C175.5,34.2,173.7,32.5,173.7,30.5"/>
	<path d="M222.5,75.6V53c-2.6-4.4-8.6-8.3-15-8.3c-10.1,0-16,8.5-16,19.6c0,11.1,5.9,19.5,16,19.5C213.9,83.8,219.9,80,222.5,75.6
		 M222.5,87.1v-7.3c-3.2,4.7-9.1,8.4-15.9,8.4c-12.1,0-20.3-9.3-20.3-23.9c0-14.5,8.2-24,20.3-24c6.5,0,12.3,3.3,15.9,8.5V24h5v63
		H222.5z"/>
	<polygon fill="#0065A4" points="73.1,36.5 97.4,60.9 109.6,36.5 	"/>
	<polygon fill="#2D3B3F" points="48.7,97.4 73.1,109.6 73.1,73.1 	"/>
	<polygon fill="#2D3B3F" points="0,73.1 36.5,73.1 12.2,48.7 	"/>
	<polygon fill="#2D3B3F" points="36.5,0 36.5,36.5 60.9,12.2 	"/>
	<path d="M573.3,134.3c4.8,0,7.6-2.3,7.6-5.4c0-6.8-9.7-4.9-9.7-6.8c0-0.7,0.8-1.1,2.1-1.1c2,0,3.9,0.9,4.9,1.8l2-3.8
		c-1.8-1.3-4.1-2.2-7-2.2c-4.6,0-7.1,2.6-7.1,5.5c0,6.8,9.7,4.6,9.7,6.7c0,0.7-0.7,1.2-2.2,1.2c-2,0-4.6-1.1-5.9-2.2l-2.2,3.8
		C567.3,133.3,570.3,134.3,573.3,134.3 M561,133.9v-10.6c0.7-0.9,2.5-1.5,3.9-1.5c0.6,0,1,0,1.3,0.1v-5.1c-2,0-4.1,1.1-5.2,2.5v-2
		h-5.3v16.7H561z M549.7,123.7h-6.9c0.2-1.2,1.1-2.6,3.4-2.6C548.7,121.1,549.6,122.5,549.7,123.7 M546.5,134.3c2.6,0,5.3-0.7,7-2.2
		l-2.3-3.5c-1,0.9-2.9,1.4-4.1,1.4c-2.4,0-3.8-1.2-4.2-2.7h11.9v-1.2c0-5.7-3.6-9.3-8.5-9.3c-5.2,0-8.8,3.9-8.8,8.7
		C537.5,131,541.4,134.3,546.5,134.3 M536.4,133.9v-11.8c0-3.1-1.7-5.3-5.5-5.3c-2.8,0-4.8,1.3-5.8,2.4v-2h-5.3v16.7h5.3v-10.8
		c0.6-0.8,1.7-1.6,3.2-1.6c1.7,0,2.7,0.7,2.7,2.8v9.6H536.4z M517.7,133.9v-11.8c0-3.1-1.7-5.3-5.5-5.3c-2.8,0-4.8,1.3-5.8,2.4v-2
		h-5.3v16.7h5.3v-10.8c0.6-0.8,1.7-1.6,3.2-1.6c1.7,0,2.7,0.7,2.7,2.8v9.6H517.7z M498.9,117.2h-5.3v16.7h5.3V117.2z M496.3,115.8
		c1.7,0,3.1-1.4,3.1-3.1c0-1.7-1.4-3-3.1-3c-1.7,0-3,1.3-3,3C493.3,114.4,494.6,115.8,496.3,115.8 M487,133.9l6.6-23h-6.7l-3.5,15.3
		l-3.9-15.3H475l-3.9,15.3l-3.5-15.3h-6.7l6.6,23h6.3l3.5-14.4l3.5,14.4H487z"/>
	<g>
		<defs>
			<polygon id="SVGID_4_" points="36.5,0 12.2,12.2 12.2,48.7 36.5,73.1 36.5,73.1 36.5,0 			"/>
		</defs>
		<clipPath id="SVGID_5_">
			<use xlink:href="#SVGID_4_"  overflow="visible"/>
		</clipPath>
		
			<radialGradient id="SVGID_6_" cx="313.4976" cy="-252.5789" r="35.4593" gradientTransform="matrix(4.489700e-11 -1 1 4.489700e-11 276.9397 350.0405)" gradientUnits="userSpaceOnUse">
			<stop  offset="0.6393" style="stop-color:#929395"/>
			<stop  offset="1" style="stop-color:#86878A"/>
		</radialGradient>
		<rect x="12.2" y="0" clip-path="url(#SVGID_5_)" fill="url(#SVGID_6_)" width="24.4" height="73.1"/>
	</g>
	<g>
		<defs>
			<polygon id="SVGID_7_" points="73.1,109.6 97.4,97.5 97.4,60.9 73.1,36.5 73.1,36.5 73.1,109.6 			"/>
		</defs>
		<clipPath id="SVGID_8_">
			<use xlink:href="#SVGID_7_"  overflow="visible"/>
		</clipPath>
		
			<radialGradient id="SVGID_9_" cx="321.1088" cy="-401.6742" r="32.2461" gradientTransform="matrix(-4.489700e-11 1 -1 -4.489700e-11 -309.164 -248.019)" gradientUnits="userSpaceOnUse">
			<stop  offset="0.6393" style="stop-color:#929395"/>
			<stop  offset="1" style="stop-color:#86878A"/>
		</radialGradient>
		<rect x="73.1" y="36.5" clip-path="url(#SVGID_8_)" fill="url(#SVGID_9_)" width="24.4" height="73.1"/>
	</g>
	<g>
		<defs>
			<polygon id="SVGID_10_" points="0,73.1 12.2,97.4 48.7,97.4 73.1,73.1 73.1,73.1 0,73.1 			"/>
		</defs>
		<clipPath id="SVGID_11_">
			<use xlink:href="#SVGID_10_"  overflow="visible"/>
		</clipPath>
		
			<radialGradient id="SVGID_12_" cx="215.6379" cy="-244.0172" r="32.2461" gradientTransform="matrix(-1 0 0 -1 252.1808 -155.4995)" gradientUnits="userSpaceOnUse">
			<stop  offset="0.4152" style="stop-color:#969699"/>
			<stop  offset="0.9541" style="stop-color:#6E7071"/>
		</radialGradient>
		<rect x="0" y="73.1" clip-path="url(#SVGID_11_)" fill="url(#SVGID_12_)" width="73.1" height="24.4"/>
	</g>
	<g>
		<path d="M237.2,78.4l8.4-12.3c4.4,4.4,11.2,8.1,19.7,8.1c5.3,0,8.6-1.8,8.6-4.9c0-8.1-34.6-1.4-34.6-25c0-10.3,8.6-19.5,24.4-19.5
			c9.8,0,18.4,2.9,24.9,8.5l-8.6,11.9c-5.1-4.3-11.9-6.4-17.9-6.4c-4.6,0-6.6,1.6-6.6,4.2c0,7.5,34.6,1.8,34.6,24.6
			c0,12.3-9.1,20.5-25.5,20.5C252,88.2,243.4,84.2,237.2,78.4z"/>
		<path d="M287.9,64.8c0-12.5,9-23.3,24.1-23.3c15.3,0,24.3,10.8,24.3,23.3c0,12.5-9,23.3-24.3,23.3
			C296.9,88.2,287.9,77.3,287.9,64.8z M321.7,64.8c0-5.9-3.5-10.8-9.7-10.8c-6.1,0-9.6,4.9-9.6,10.8c0,6,3.5,10.8,9.6,10.8
			C318.2,75.7,321.7,70.8,321.7,64.8z"/>
		<path d="M337.4,87.1V25.8h14.2v61.3H337.4z"/>
		<path d="M385.5,87.1v-5.3c-2.8,3.1-7.8,6.4-15.3,6.4c-10,0-14.6-5.8-14.6-13.9V42.7h14.2v25.7c0,5.4,2.8,7.3,7.4,7.3
			c4,0,6.8-2.2,8.5-4.3V42.7h14.2v44.4H385.5z"/>
		<path d="M406.7,75.1V54.9h-7.4V42.7h7.4V30.6h14.2v12.1h9v12.2h-9v16.3c0,2.6,1.5,4.5,3.9,4.5c1.6,0,3.1-0.6,3.6-1.1l2.8,10.7
			c-1.7,1.7-5.2,2.9-10.5,2.9C411.6,88.2,406.7,83.7,406.7,75.1z"/>
		<path d="M429.6,30.6c0-4.5,3.6-8.1,8.1-8.1c4.5,0,8.2,3.6,8.2,8.1c0,4.5-3.7,8.2-8.2,8.2C433.1,38.7,429.6,35.1,429.6,30.6z
			 M430.6,87.1V42.7h14.2v44.4H430.6z"/>
		<path d="M445.9,64.8c0-12.5,9-23.3,24.1-23.3c15.3,0,24.3,10.8,24.3,23.3c0,12.5-9,23.3-24.3,23.3
			C454.9,88.2,445.9,77.3,445.9,64.8z M479.7,64.8c0-5.9-3.5-10.8-9.7-10.8c-6.1,0-9.6,4.9-9.6,10.8c0,6,3.5,10.8,9.6,10.8
			C476.3,75.7,479.7,70.8,479.7,64.8z"/>
		<path d="M525.5,87.1V61.4c0-5.4-2.8-7.4-7.3-7.4c-4.2,0-7,2.3-8.6,4.3v28.7h-14.2V42.7h14.2v5.4c2.7-3.1,7.9-6.5,15.4-6.5
			c10,0,14.6,5.9,14.6,14.1v31.4H525.5z"/>
		<path d="M539.9,81.3l5.9-10.1c3.3,2.9,10.4,6,15.6,6c4.2,0,6-1.2,6-3.1c0-5.5-25.8,0.2-25.8-17.8c0-7.8,6.8-14.6,19-14.6
			c7.5,0,13.8,2.4,18.6,5.9l-5.4,10c-2.7-2.6-7.7-4.9-13.1-4.9c-3.3,0-5.5,1.3-5.5,3c0,4.9,25.7-0.2,25.7,18
			c0,8.5-7.4,14.5-20.1,14.5C552.8,88.2,544.6,85.5,539.9,81.3z"/>
	</g>
	<g>
		<path d="M297.8,122.4c0-7.1,5.1-11.9,11.7-11.9c3.7,0,6.4,1.6,8.4,4.1l-1.7,1.1c-1.4-2-4-3.3-6.7-3.3c-5.4,0-9.6,4.1-9.6,10.1
			c0,5.9,4.2,10.1,9.6,10.1c2.8,0,5.3-1.3,6.7-3.3l1.7,1c-2.1,2.5-4.8,4.1-8.4,4.1C302.9,134.3,297.8,129.5,297.8,122.4z"/>
		<path d="M319.4,125.6c0-4.9,3.1-8.7,8-8.7c4.9,0,8,3.9,8,8.7c0,4.9-3.1,8.8-8,8.8C322.5,134.3,319.4,130.4,319.4,125.6z
			 M333.4,125.6c0-3.7-2.2-7.1-6.1-7.1c-3.9,0-6.1,3.4-6.1,7.1c0,3.7,2.2,7.1,6.1,7.1C331.3,132.7,333.4,129.3,333.4,125.6z"/>
		<path d="M349.8,133.9v-11.3c0-3.2-1.6-4.2-4-4.2c-2.1,0-4.3,1.3-5.4,2.9v12.6h-1.8v-16.6h1.8v2.5c1.2-1.4,3.6-2.9,6-2.9
			c3.4,0,5.2,1.7,5.2,5.4v11.7H349.8z"/>
		<path d="M367,133.9v-11.3c0-3.2-1.6-4.2-4-4.2c-2.1,0-4.3,1.3-5.4,2.9v12.6h-1.8v-16.6h1.8v2.5c1.2-1.4,3.6-2.9,6-2.9
			c3.4,0,5.2,1.7,5.2,5.4v11.7H367z"/>
		<path d="M372.1,125.6c0-4.8,3.4-8.7,8-8.7c5.1,0,7.9,4,7.9,8.8v0.5H374c0.2,3.6,2.6,6.6,6.5,6.6c2.1,0,4-0.8,5.4-2.3l0.9,1.2
			c-1.7,1.7-3.8,2.7-6.5,2.7C375.5,134.3,372.1,130.7,372.1,125.6z M380,118.4c-3.9,0-5.9,3.4-6,6.3h12.1
			C386,121.9,384.2,118.4,380,118.4z"/>
		<path d="M390.2,125.6c0-4.9,3.2-8.7,8.1-8.7c2.9,0,4.5,1.1,5.9,2.8l-1.2,1.1c-1.2-1.7-2.7-2.3-4.5-2.3c-3.9,0-6.3,3.1-6.3,7.1
			c0,4,2.4,7.1,6.3,7.1c1.8,0,3.3-0.7,4.5-2.3l1.2,1.1c-1.3,1.7-3,2.9-5.9,2.9C393.4,134.3,390.2,130.4,390.2,125.6z"/>
		<path d="M407.1,130.7v-11.9h-2.8v-1.6h2.8v-4.5h1.8v4.5h3.4v1.6h-3.4v11.6c0,1.3,0.6,2.3,1.7,2.3c0.8,0,1.5-0.4,1.9-0.8l0.7,1.4
			c-0.7,0.6-1.4,1-2.8,1C408.1,134.3,407.1,133,407.1,130.7z"/>
		<path d="M414.3,113.2c0-0.8,0.7-1.3,1.4-1.3c0.8,0,1.4,0.6,1.4,1.3c0,0.8-0.6,1.4-1.4,1.4C415,114.6,414.3,114,414.3,113.2z
			 M414.8,133.9v-16.6h1.8v16.6H414.8z"/>
		<path d="M432,133.9v-11.3c0-3.2-1.6-4.2-4-4.2c-2.1,0-4.3,1.3-5.4,2.9v12.6h-1.8v-16.6h1.8v2.5c1.2-1.4,3.6-2.9,6-2.9
			c3.4,0,5.2,1.7,5.2,5.4v11.7H432z"/>
		<path d="M438,138.1l1-1.4c1.4,1.7,3,2.3,5.5,2.3c3,0,5.7-1.5,5.7-5.3v-2.7c-1.2,1.7-3.3,3.1-5.8,3.1c-4.4,0-7.4-3.3-7.4-8.7
			c0-5.3,3-8.7,7.4-8.7c2.4,0,4.4,1.2,5.8,3.1v-2.7h1.8v16.5c0,5.1-3.4,6.9-7.5,6.9C441.8,140.6,440,140.1,438,138.1z M450.2,129.6
			v-8.1c-1-1.6-3.2-3-5.5-3c-3.7,0-5.8,3.1-5.8,7.1c0,4,2.1,7.1,5.8,7.1C447.1,132.6,449.3,131.2,450.2,129.6z"/>
	</g>
</g>
</svg>
